<svg width="280" height="157" viewBox="0 0 280 157" fill="none" xmlns="http://www.w3.org/2000/svg">
<g clip-path="url(#clip0_4_2500)">
<path d="M31.429 40.9354H62.6173V46.7733H50.3921V79.5078H43.6543V46.7733H31.429V40.9354Z" fill="white"/>
<path d="M66.2293 40.9354H72.4114V55.2523H72.5503C73.3144 54.0013 74.4258 52.9588 75.9539 52.1248C77.4126 51.2908 79.0797 50.8738 80.9552 50.8738C84.0115 50.8738 86.4426 51.6383 88.1792 53.2368C89.9157 54.8353 90.8187 57.1983 90.8187 60.3953V79.5772H84.6366V61.9243C84.5672 59.7003 84.081 58.1018 83.2474 57.1288C82.4139 56.1558 81.0246 55.6693 79.2186 55.6693C78.1767 55.6693 77.2737 55.8778 76.4402 56.2253C75.6066 56.5728 74.912 57.1288 74.3563 57.8238C73.8006 58.5188 73.3144 59.2833 73.0366 60.1868C72.6892 61.0903 72.5503 62.0633 72.5503 63.0363V79.5077H66.3682V40.9354H66.2293Z" fill="white"/>
<path d="M97.4176 40.9354H103.6V46.7733H97.4176V40.9354ZM97.4176 51.5688H103.6V79.5078H97.4176V51.5688Z" fill="white"/>
<path d="M114.922 70.5423C115.13 72.3493 115.755 73.6003 117.006 74.2953C118.187 74.9903 119.645 75.4073 121.243 75.4073C121.799 75.4073 122.493 75.3378 123.188 75.2683C123.952 75.1988 124.647 74.9903 125.272 74.7818C125.897 74.5038 126.453 74.1563 126.869 73.6698C127.286 73.1833 127.495 72.5578 127.425 71.7238C127.356 70.9593 127.078 70.2643 126.592 69.7778C126.036 69.2913 125.341 68.8743 124.508 68.5963C123.674 68.3183 122.702 68.0403 121.59 67.8318C120.479 67.6233 119.437 67.4148 118.326 67.1368C117.145 66.8588 116.033 66.5808 114.991 66.2333C113.949 65.8858 112.977 65.3993 112.143 64.7738C111.31 64.1483 110.615 63.3838 110.129 62.4108C109.643 61.4378 109.365 60.2563 109.365 58.8663C109.365 57.3373 109.712 56.0863 110.476 55.0438C111.24 54.0013 112.143 53.1673 113.255 52.5418C114.366 51.9163 115.617 51.4993 117.006 51.2213C118.395 50.9433 119.715 50.8738 120.965 50.8738C122.424 50.8738 123.813 51.0128 125.063 51.3603C126.383 51.6383 127.564 52.1943 128.606 52.8198C129.648 53.5148 130.551 54.4183 131.245 55.4608C131.94 56.5728 132.357 57.8933 132.565 59.4223H126.175C125.897 57.9628 125.202 56.9898 124.16 56.4338C123.118 55.9473 121.868 55.6693 120.548 55.6693C120.132 55.6693 119.576 55.7388 119.02 55.8083C118.395 55.8778 117.839 56.0168 117.353 56.2253C116.797 56.4338 116.381 56.7118 116.033 57.0593C115.686 57.4068 115.478 57.9628 115.478 58.5188C115.478 59.2833 115.755 59.9088 116.242 60.3258C116.797 60.8123 117.423 61.1598 118.326 61.5073C119.159 61.7853 120.132 62.0633 121.243 62.2718C122.354 62.4803 123.466 62.6888 124.577 62.9668C125.689 63.2448 126.8 63.5228 127.842 63.8703C128.953 64.2178 129.856 64.7043 130.759 65.3298C131.593 65.9553 132.287 66.7198 132.843 67.6233C133.329 68.5268 133.607 69.7083 133.607 71.0983C133.607 72.7663 133.26 74.1563 132.496 75.3378C131.732 76.5193 130.759 77.4228 129.578 78.1178C128.398 78.8128 127.008 79.3687 125.55 79.7162C124.091 80.0637 122.632 80.2027 121.173 80.2027C119.437 80.2027 117.77 79.9942 116.311 79.5773C114.783 79.1603 113.533 78.6043 112.421 77.7703C111.31 76.9363 110.476 75.9633 109.851 74.7123C109.226 73.5308 108.879 72.0713 108.879 70.4033H114.922V70.5423Z" fill="white"/>
<path d="M164.17 64.3568L149.722 40.9354H157.571L167.782 58.2408L177.854 40.9354H185.426L171.047 64.3568V79.5078H164.309V64.3568H164.17Z" fill="white"/>
<path d="M188.065 67.1368C188.065 68.2488 188.204 69.2913 188.551 70.2643C188.829 71.3068 189.315 72.1408 189.941 72.9053C190.566 73.6698 191.33 74.2953 192.233 74.7123C193.136 75.1293 194.317 75.4073 195.567 75.4073C197.373 75.4073 198.832 74.9903 199.943 74.2258C201.054 73.4613 201.888 72.2798 202.374 70.7508H208.209C207.862 72.2798 207.306 73.6003 206.542 74.7818C205.778 75.9633 204.805 76.9363 203.694 77.7703C202.583 78.6043 201.332 79.1603 199.943 79.5773C198.554 79.9943 197.095 80.2028 195.567 80.2028C193.344 80.2028 191.399 79.8553 189.732 79.0908C188.065 78.3958 186.606 77.3533 185.426 76.0328C184.245 74.7123 183.342 73.1833 182.786 71.3763C182.161 69.5693 181.883 67.6233 181.883 65.4688C181.883 63.5228 182.23 61.5768 182.855 59.8393C183.481 58.0323 184.384 56.5033 185.564 55.1134C186.745 53.7929 188.135 52.6809 189.802 51.9164C191.469 51.1519 193.344 50.7349 195.428 50.7349C197.651 50.7349 199.596 51.2214 201.332 52.1249C203.069 53.0284 204.527 54.2794 205.708 55.7388C206.889 57.2678 207.723 59.0053 208.209 60.9513C208.765 62.8973 208.834 64.9128 208.626 66.9978H188.065V67.1368ZM202.444 63.0363C202.374 62.0633 202.166 61.1598 201.818 60.2563C201.471 59.3528 200.985 58.5883 200.429 57.8933C199.804 57.1983 199.109 56.7118 198.276 56.2948C197.442 55.8778 196.47 55.6693 195.428 55.6693C194.317 55.6693 193.344 55.8778 192.511 56.2253C191.608 56.5728 190.844 57.1288 190.218 57.8238C189.593 58.5188 189.107 59.2833 188.69 60.1868C188.343 61.0903 188.135 62.0633 188.065 63.1058H202.444V63.0363Z" fill="white"/>
<path d="M236.688 73.2528C236.688 74.0172 236.758 74.5732 236.966 74.8512C237.174 75.1987 237.522 75.3377 238.147 75.3377C238.355 75.3377 238.564 75.3377 238.772 75.3377C239.05 75.3377 239.328 75.2682 239.606 75.1987V79.4382C239.397 79.5077 239.119 79.5772 238.772 79.7162C238.425 79.7857 238.077 79.8552 237.73 79.9247C237.383 79.9942 237.036 80.0637 236.619 80.0637C236.271 80.1332 235.924 80.1332 235.716 80.1332C234.465 80.1332 233.424 79.8552 232.59 79.3687C231.756 78.8822 231.201 77.9787 230.992 76.7277C229.742 77.9092 228.283 78.8127 226.477 79.2992C224.671 79.8552 223.004 80.1332 221.337 80.1332C220.087 80.1332 218.906 79.9942 217.725 79.6467C216.544 79.2992 215.572 78.8127 214.669 78.1177C213.766 77.4227 213.071 76.5887 212.585 75.5462C212.029 74.5037 211.821 73.3222 211.821 71.9323C211.821 70.1948 212.168 68.8048 212.793 67.6928C213.419 66.5808 214.252 65.7468 215.294 65.1213C216.336 64.4958 217.447 64.0788 218.767 63.8008C220.017 63.5228 221.337 63.3143 222.657 63.1753C223.768 62.9668 224.81 62.8278 225.852 62.6888C226.894 62.6193 227.728 62.4803 228.492 62.2023C229.256 61.9938 229.881 61.6463 230.298 61.2293C230.715 60.8123 230.992 60.1173 230.992 59.2138C230.992 58.4493 230.784 57.7543 230.437 57.2678C230.089 56.7813 229.603 56.3643 229.047 56.0863C228.492 55.8083 227.867 55.6693 227.172 55.5303C226.477 55.4608 225.852 55.3913 225.227 55.3913C223.491 55.3913 222.101 55.7388 220.99 56.5033C219.879 57.1983 219.253 58.3103 219.114 59.8393H212.932C213.071 58.0323 213.488 56.5728 214.252 55.3913C215.016 54.2098 215.989 53.2368 217.17 52.5418C218.35 51.8468 219.67 51.2908 221.129 51.0128C222.588 50.7348 224.116 50.5958 225.644 50.5958C227.033 50.5958 228.353 50.7348 229.673 51.0128C230.992 51.2908 232.173 51.7773 233.285 52.4028C234.327 53.0283 235.23 53.8623 235.855 54.9048C236.48 55.9473 236.827 57.1983 236.827 58.6578V73.2528H236.688ZM230.506 65.4688C229.603 66.0943 228.422 66.4418 227.033 66.5808C225.644 66.7198 224.324 66.9283 222.935 67.1368C222.31 67.2758 221.685 67.4148 221.059 67.6233C220.434 67.8318 219.879 68.1098 219.462 68.4573C218.976 68.8048 218.628 69.2218 218.35 69.7778C218.073 70.3338 217.934 71.0288 217.934 71.7933C217.934 72.4883 218.142 73.0443 218.559 73.5308C218.976 74.0172 219.462 74.3647 220.017 74.6427C220.573 74.9207 221.198 75.1292 221.823 75.1987C222.518 75.3377 223.074 75.3377 223.629 75.3377C224.324 75.3377 225.019 75.2682 225.852 75.0597C226.616 74.8512 227.38 74.5732 228.075 74.1562C228.77 73.7392 229.395 73.1833 229.812 72.4883C230.298 71.7933 230.506 71.0288 230.506 70.0558V65.4688Z" fill="white"/>
<path d="M243.287 51.5688H249.052V56.9898H249.191C249.4 56.2253 249.747 55.5303 250.233 54.7658C250.72 54.0708 251.414 53.3758 252.109 52.8198C252.873 52.1943 253.637 51.7773 254.54 51.3603C255.443 51.0128 256.346 50.8043 257.318 50.8043C258.013 50.8043 258.499 50.8043 258.777 50.8738C259.055 50.9433 259.333 50.9433 259.611 51.0128V56.9203C259.194 56.8508 258.708 56.7813 258.291 56.7118C257.874 56.6423 257.388 56.6423 256.971 56.6423C255.929 56.6423 254.957 56.8508 254.054 57.2678C253.151 57.6848 252.317 58.3103 251.623 59.0748C250.928 59.9088 250.372 60.8818 250.025 62.0633C249.608 63.2448 249.4 64.6348 249.4 66.1638V79.4382H243.287V51.5688Z" fill="white"/>
<path d="M42.6818 88.8207H49.8364L67.4102 117.246H67.5491V88.8207H73.9396V127.393H66.8545L49.2807 99.0371H49.1418V127.393H42.7513V88.8207H42.6818Z" fill="white"/>
<path d="M85.887 115.022C85.887 116.134 86.0259 117.177 86.3732 118.15C86.6511 119.192 87.1373 120.026 87.7624 120.791C88.3876 121.555 89.1517 122.181 90.0547 122.598C90.9577 123.015 92.1385 123.293 93.3888 123.293C95.1948 123.293 96.6535 122.876 97.7649 122.111C98.8763 121.347 99.7099 120.165 100.196 118.636H106.031C105.684 120.165 105.128 121.486 104.364 122.667C103.6 123.849 102.627 124.822 101.516 125.656C100.404 126.49 99.1542 127.046 97.7649 127.463C96.3757 127.88 94.917 128.088 93.3888 128.088C91.1661 128.088 89.2211 127.741 87.5541 126.976C85.887 126.281 84.4283 125.239 83.2474 123.918C82.0666 122.598 81.1636 121.069 80.6079 119.262C79.9827 117.455 79.7049 115.509 79.7049 113.354C79.7049 111.408 80.0522 109.462 80.6774 107.725C81.3025 105.918 82.2055 104.389 83.3864 102.999C84.5672 101.678 85.9564 100.566 87.6235 99.8017C89.2906 99.0372 91.1661 98.6202 93.2499 98.6202C95.4727 98.6202 97.4176 99.1067 99.1542 100.01C100.891 100.914 102.349 102.165 103.53 103.624C104.711 105.153 105.545 106.891 106.031 108.837C106.587 110.783 106.656 112.798 106.448 114.883H85.887V115.022ZM100.266 110.991C100.196 110.018 99.9877 109.115 99.6404 108.211C99.2931 107.308 98.8069 106.543 98.2512 105.848C97.626 105.153 96.9314 104.667 96.0979 104.25C95.2643 103.833 94.2918 103.624 93.2499 103.624C92.1385 103.624 91.1661 103.833 90.3325 104.18C89.4295 104.528 88.6654 105.084 88.0403 105.779C87.4151 106.474 86.9289 107.238 86.5121 108.142C86.1648 109.045 85.9564 110.018 85.887 111.061H100.266V110.991Z" fill="white"/>
<path d="M118.603 112.729L108.948 99.5237H116.381L122.215 108.142L128.328 99.5237H135.483L125.966 112.451L136.663 127.463H129.3L122.215 117.177L115.339 127.463H108.115L118.603 112.729Z" fill="white"/>
<path d="M137.289 99.4542H141.943V91.1142H148.125V99.4542H153.682V104.041H148.125V118.914C148.125 119.54 148.125 120.096 148.194 120.582C148.264 121.069 148.402 121.416 148.541 121.764C148.75 122.111 149.028 122.32 149.444 122.459C149.861 122.598 150.347 122.667 151.042 122.667C151.459 122.667 151.876 122.667 152.362 122.667C152.779 122.667 153.195 122.598 153.682 122.459V127.185C152.987 127.254 152.362 127.324 151.667 127.393C151.042 127.463 150.347 127.532 149.653 127.532C148.055 127.532 146.735 127.393 145.763 127.046C144.79 126.698 144.026 126.281 143.471 125.725C142.915 125.1 142.568 124.405 142.359 123.501C142.151 122.598 142.012 121.555 142.012 120.443V103.972H137.358V99.4542H137.289Z" fill="white"/>
<path d="M183.967 112.312L169.519 88.8902H177.368L187.579 106.196L197.651 88.8902H205.222L190.844 112.312V127.463H184.106V112.312H183.967Z" fill="white"/>
<path d="M207.862 115.022C207.862 116.134 208.001 117.177 208.348 118.15C208.626 119.192 209.112 120.026 209.737 120.791C210.362 121.555 211.126 122.181 212.029 122.598C212.932 123.015 214.113 123.293 215.364 123.293C217.17 123.293 218.628 122.876 219.74 122.111C220.851 121.347 221.685 120.165 222.171 118.636H228.006C227.658 120.165 227.103 121.486 226.338 122.667C225.574 123.849 224.602 124.822 223.491 125.656C222.379 126.49 221.129 127.046 219.74 127.463C218.35 127.88 216.892 128.088 215.364 128.088C213.141 128.088 211.196 127.741 209.529 126.976C207.862 126.281 206.403 125.239 205.222 123.918C204.041 122.598 203.138 121.069 202.583 119.262C201.957 117.455 201.68 115.509 201.68 113.354C201.68 111.408 202.027 109.462 202.652 107.725C203.277 105.918 204.18 104.389 205.361 102.999C206.542 101.678 207.931 100.566 209.598 99.8017C211.265 99.0372 213.141 98.6202 215.225 98.6202C217.447 98.6202 219.392 99.1067 221.129 100.01C222.865 100.914 224.324 102.165 225.505 103.624C226.686 105.153 227.519 106.891 228.006 108.837C228.561 110.783 228.631 112.798 228.422 114.883H207.862V115.022ZM222.24 110.991C222.171 110.018 221.962 109.115 221.615 108.211C221.268 107.308 220.782 106.543 220.226 105.848C219.601 105.153 218.906 104.667 218.073 104.25C217.239 103.833 216.267 103.624 215.225 103.624C214.113 103.624 213.141 103.833 212.307 104.18C211.404 104.528 210.64 105.084 210.015 105.779C209.39 106.474 208.904 107.238 208.487 108.142C208.139 109.045 207.931 110.018 207.862 111.061H222.24V110.991Z" fill="white"/>
<path d="M256.485 121.208C256.485 121.972 256.554 122.528 256.763 122.806C256.971 123.154 257.318 123.293 257.943 123.293C258.152 123.293 258.36 123.293 258.569 123.293C258.846 123.293 259.124 123.223 259.402 123.154V127.393C259.194 127.463 258.916 127.532 258.569 127.671C258.221 127.741 257.874 127.81 257.527 127.88C257.179 127.949 256.832 128.019 256.415 128.019C256.068 128.088 255.721 128.088 255.512 128.088C254.262 128.088 253.22 127.81 252.387 127.324C251.553 126.837 250.997 125.934 250.789 124.683C249.539 125.864 248.08 126.768 246.274 127.254C244.468 127.81 242.801 128.088 241.134 128.088C239.883 128.088 238.703 127.949 237.522 127.602C236.341 127.254 235.368 126.768 234.465 126.073C233.562 125.378 232.868 124.544 232.382 123.501C231.826 122.459 231.618 121.277 231.618 119.887C231.618 118.15 231.965 116.76 232.59 115.648C233.215 114.536 234.049 113.702 235.091 113.076C236.133 112.451 237.244 112.034 238.564 111.756C239.814 111.478 241.134 111.269 242.454 111.13C243.565 110.922 244.607 110.783 245.649 110.644C246.691 110.574 247.524 110.435 248.288 110.157C249.052 109.949 249.678 109.601 250.094 109.184C250.511 108.767 250.789 108.072 250.789 107.169C250.789 106.404 250.581 105.709 250.233 105.223C249.886 104.736 249.4 104.319 248.844 104.041C248.288 103.763 247.663 103.624 246.969 103.485C246.274 103.416 245.649 103.346 245.024 103.346C243.287 103.346 241.898 103.694 240.786 104.458C239.675 105.153 239.05 106.265 238.911 107.794H232.729C232.868 105.987 233.285 104.528 234.049 103.346C234.813 102.165 235.785 101.192 236.966 100.497C238.147 99.8017 239.467 99.2457 240.925 98.9677C242.384 98.6897 243.912 98.5507 245.44 98.5507C246.83 98.5507 248.149 98.6897 249.469 98.9677C250.789 99.2457 251.97 99.7321 253.081 100.358C254.123 100.983 255.026 101.817 255.651 102.86C256.276 103.902 256.624 105.153 256.624 106.613V121.208H256.485ZM250.303 113.424C249.4 114.049 248.219 114.397 246.83 114.536C245.44 114.675 244.121 114.883 242.731 115.092C242.106 115.231 241.481 115.37 240.856 115.578C240.231 115.787 239.675 116.065 239.258 116.412C238.772 116.76 238.425 117.177 238.147 117.733C237.869 118.289 237.73 118.984 237.73 119.748C237.73 120.443 237.939 120.999 238.355 121.486C238.772 121.972 239.258 122.32 239.814 122.598C240.37 122.876 240.995 123.084 241.62 123.154C242.315 123.293 242.87 123.293 243.426 123.293C244.121 123.293 244.815 123.223 245.649 123.015C246.413 122.806 247.177 122.528 247.872 122.111C248.566 121.694 249.191 121.138 249.608 120.443C250.094 119.748 250.303 118.984 250.303 118.011V113.424Z" fill="white"/>
<path d="M263.084 99.4542H268.849V104.875H268.988C269.196 104.111 269.544 103.416 270.03 102.651C270.516 101.956 271.211 101.261 271.905 100.705C272.669 100.08 273.434 99.6627 274.337 99.2457C275.24 98.8982 276.143 98.6897 277.115 98.6897C277.81 98.6897 278.296 98.6897 278.574 98.7592C278.852 98.8287 279.129 98.8287 279.407 98.8982V104.806C278.99 104.736 278.504 104.667 278.087 104.597C277.671 104.528 277.184 104.528 276.768 104.528C275.726 104.528 274.753 104.736 273.85 105.153C272.947 105.57 272.114 106.196 271.419 106.96C270.725 107.794 270.169 108.767 269.822 109.949C269.405 111.13 269.196 112.52 269.196 114.049V127.324H263.014V99.4542H263.084Z" fill="white"/>
<path d="M34.4853 5.00393C35.1799 4.93443 35.8051 4.72593 36.2913 4.51743C36.7775 4.23943 37.2638 3.82243 37.6111 3.26644C37.9584 2.71044 38.2362 1.94594 38.3751 0.903442H39.9728V22.9349H37.9584V6.60243H32.1236V5.21243C33.0266 5.14293 33.7907 5.07343 34.4853 5.00393Z" fill="white"/>
<path d="M47.683 22.9349C47.683 21.8229 47.8914 20.8499 48.2387 20.0159C48.586 19.1819 49.0723 18.4174 49.628 17.7224C50.1837 17.0274 50.8783 16.4714 51.6424 15.9154C52.4064 15.3594 53.1011 14.8034 53.9346 14.3169C54.6987 13.8304 55.4628 13.2744 56.2268 12.7184C56.9909 12.1624 57.6855 11.6064 58.3107 10.9809C58.9358 10.3554 59.3526 9.72992 59.6999 9.10442C59.9778 8.47892 60.1862 7.71442 60.1862 6.81093C60.1862 6.11593 60.0472 5.49043 59.7694 4.93443C59.4915 4.37843 59.1442 3.89194 58.7275 3.54444C58.3107 3.12744 57.755 2.84944 57.1298 2.64094C56.5047 2.43244 55.8795 2.36294 55.2544 2.36294C54.3514 2.36294 53.5873 2.50194 52.9621 2.84944C52.337 3.19694 51.7813 3.61394 51.434 4.16994C51.0172 4.72593 50.7394 5.35143 50.6004 6.11593C50.2531 6.94993 50.1837 7.71442 50.1837 8.54842H48.1693C48.1693 7.43643 48.3082 6.39393 48.586 5.42093C48.8639 4.44793 49.2807 3.61394 49.9058 2.91894C50.4615 2.22394 51.2256 1.66794 52.1286 1.32044C53.0316 0.903446 54.0735 0.694946 55.2544 0.694946C56.2268 0.694946 57.1298 0.833946 57.9634 1.11195C58.7969 1.38994 59.4915 1.73744 60.1167 2.29344C60.7418 2.77994 61.2281 3.47494 61.5754 4.23944C61.9227 5.00393 62.0616 5.90743 62.0616 6.94993C62.0616 7.85342 61.9227 8.68742 61.5754 9.45192C61.2975 10.2164 60.8808 10.9114 60.3251 11.5369C59.8388 12.1624 59.2137 12.7184 58.5885 13.2744C57.8939 13.8304 57.1993 14.3169 56.5047 14.7339C55.949 15.0814 55.3933 15.4984 54.6292 15.9154C53.9346 16.3324 53.24 16.8189 52.5454 17.3749C51.8507 17.9309 51.2951 18.4869 50.8088 19.1124C50.3226 19.7379 49.9753 20.4329 49.8364 21.1279H62.0616V22.9349H47.683Z" fill="white"/>
<path d="M74.6342 6.672H76.6485V13.5525H85.8869V6.672H87.9013V22.935H85.8869V15.29H76.6485V22.935H74.6342V6.672Z" fill="white"/>
<path d="M98.39 23.3519C97.1397 23.3519 96.0283 23.1434 95.1253 22.6569C94.1528 22.2399 93.3888 21.6144 92.6941 20.8499C92.069 20.0854 91.5828 19.1819 91.2354 18.1394C90.8881 17.0969 90.7492 15.9849 90.7492 14.8034C90.7492 13.6219 90.8881 12.5794 91.2354 11.4674C91.5828 10.4249 92.069 9.52141 92.6941 8.75692C93.3193 7.99242 94.1528 7.36692 95.1253 6.88042C96.0978 6.39392 97.1397 6.18542 98.39 6.18542C99.6403 6.18542 100.752 6.39392 101.655 6.88042C102.627 7.36692 103.391 7.99242 104.086 8.75692C104.711 9.52141 105.197 10.4249 105.545 11.4674C105.892 12.5099 106.031 13.6219 106.031 14.8034C106.031 15.9849 105.892 17.0969 105.545 18.1394C105.197 19.1819 104.711 20.0854 104.086 20.8499C103.461 21.6144 102.627 22.2399 101.655 22.6569C100.752 23.1434 99.6403 23.3519 98.39 23.3519ZM98.39 21.6839C99.3625 21.6839 100.127 21.4754 100.891 21.0584C101.585 20.6414 102.21 20.1549 102.697 19.4599C103.183 18.8344 103.53 18.0699 103.739 17.2359C103.947 16.4019 104.086 15.5679 104.086 14.7339C104.086 13.8999 103.947 13.0659 103.739 12.2319C103.53 11.3979 103.113 10.7029 102.697 10.0079C102.21 9.38241 101.655 8.82642 100.891 8.40942C100.196 7.99242 99.3625 7.78392 98.39 7.78392C97.4175 7.78392 96.6535 7.99242 95.8894 8.40942C95.1948 8.82642 94.5696 9.31291 94.0834 10.0079C93.5971 10.6334 93.2498 11.3979 93.0414 12.2319C92.8331 13.0659 92.6941 13.8999 92.6941 14.7339C92.6941 15.5679 92.8331 16.4019 93.0414 17.2359C93.2498 18.0699 93.6666 18.7649 94.0834 19.4599C94.5696 20.0854 95.1253 20.6414 95.8894 21.0584C96.6535 21.4754 97.487 21.6839 98.39 21.6839Z" fill="white"/>
<path d="M113.116 16.3325C111.657 16.1935 110.546 15.7765 109.643 14.873C108.809 14.039 108.393 12.927 108.393 11.4675C108.393 10.7725 108.531 10.0775 108.74 9.52149C108.948 8.89599 109.296 8.40949 109.712 7.99249C110.129 7.57549 110.615 7.228 111.24 7.0195C111.866 6.811 112.56 6.672 113.255 6.672H121.104V22.935H119.09V16.4715H115.269L109.712 22.935H107.142L113.116 16.3325ZM119.229 14.8035V8.33999H113.811C112.699 8.33999 111.866 8.61799 111.31 9.24349C110.754 9.86899 110.407 10.6335 110.407 11.537C110.407 12.51 110.685 13.2745 111.31 13.8305C111.866 14.456 112.769 14.734 113.811 14.734H119.229V14.8035Z" fill="white"/>
<path d="M131.94 23.3519C130.481 23.3519 129.231 23.0739 128.259 22.5179C127.286 21.9619 126.522 21.2669 125.966 20.3634C125.411 19.4599 124.994 18.4174 124.785 17.2359C124.577 16.0544 124.438 14.873 124.438 13.622C124.438 12.8575 124.438 12.0235 124.508 11.1895C124.577 10.3555 124.647 9.52147 124.855 8.68747C124.994 7.85348 125.202 7.08898 125.48 6.32448C125.758 5.55998 126.036 4.86498 126.453 4.30899C127.217 3.19699 128.05 2.36299 129.092 1.87649C130.134 1.39 131.384 1.112 132.982 0.972997L134.51 0.903497C135.344 0.833997 135.899 0.764498 136.177 0.625498C136.455 0.486498 136.663 0.277999 136.802 0H139.025C138.886 0.972997 138.4 1.5985 137.775 1.94599C137.08 2.29349 136.038 2.50199 134.649 2.57149L132.218 2.77999C130.342 2.91899 128.953 3.54449 127.981 4.79549C127.008 5.97698 126.383 7.85348 125.966 10.3555H126.036C126.591 9.24347 127.356 8.40947 128.467 7.71448C129.509 7.01948 130.759 6.74148 132.079 6.74148C133.19 6.74148 134.163 6.94998 135.066 7.29748C135.969 7.64498 136.733 8.20097 137.358 8.96547C137.983 9.66047 138.539 10.564 138.886 11.6065C139.233 12.649 139.442 13.761 139.442 15.0815C139.442 16.3324 139.233 17.5139 138.886 18.5564C138.539 19.5989 138.053 20.5024 137.358 21.1974C136.663 21.9619 135.899 22.5179 134.996 22.8654C134.093 23.1434 133.051 23.3519 131.94 23.3519ZM131.94 21.6839C132.704 21.6839 133.468 21.5449 134.163 21.1974C134.857 20.8499 135.413 20.4329 135.899 19.8074C136.386 19.1819 136.802 18.4869 137.08 17.6529C137.358 16.8189 137.497 15.9155 137.497 14.9425C137.497 13.9695 137.358 13.066 137.08 12.232C136.802 11.398 136.455 10.703 135.899 10.147C135.413 9.59097 134.857 9.10447 134.163 8.82647C133.468 8.47897 132.774 8.33997 132.009 8.33997C131.176 8.33997 130.412 8.47897 129.717 8.82647C129.023 9.17397 128.467 9.59097 127.911 10.147C127.425 10.703 127.008 11.398 126.73 12.232C126.453 13.066 126.314 13.9695 126.314 14.9425C126.314 15.9155 126.453 16.8884 126.73 17.6529C127.008 18.4869 127.356 19.1819 127.911 19.8074C128.397 20.4329 129.023 20.8499 129.648 21.1974C130.412 21.5449 131.106 21.6839 131.94 21.6839Z" fill="white"/>
<path d="M142.429 6.67192H144.235V9.72991H144.304C144.79 8.61792 145.485 7.71442 146.527 7.08892C147.569 6.46342 148.75 6.18542 150.07 6.18542C151.32 6.18542 152.362 6.39392 153.265 6.88042C154.168 7.36692 154.932 7.99242 155.557 8.75692C156.182 9.52141 156.599 10.4249 156.877 11.4674C157.155 12.5099 157.294 13.6219 157.294 14.7339C157.294 15.9154 157.155 17.0274 156.877 18.0699C156.599 19.1124 156.113 20.0159 155.557 20.7804C154.932 21.5449 154.168 22.1704 153.265 22.6569C152.362 23.0739 151.25 23.3519 150.07 23.3519C149.444 23.3519 148.889 23.2824 148.264 23.1434C147.708 23.0044 147.152 22.7959 146.666 22.4484C146.18 22.1704 145.693 21.7534 145.346 21.3364C144.929 20.9194 144.652 20.3634 144.443 19.8074H144.374V28.8424H142.359V6.67192H142.429ZM150.07 21.6839C151.042 21.6839 151.806 21.4754 152.501 21.0584C153.195 20.6414 153.751 20.1549 154.168 19.4599C154.585 18.8344 154.932 18.0699 155.14 17.2359C155.349 16.4019 155.418 15.5679 155.418 14.7339C155.418 13.8999 155.349 13.0659 155.14 12.2319C154.932 11.3979 154.654 10.6334 154.168 10.0079C153.751 9.38241 153.195 8.82642 152.501 8.40942C151.806 7.99242 151.042 7.78392 150.07 7.78392C148.958 7.78392 148.055 7.99242 147.291 8.33992C146.596 8.68742 145.971 9.24341 145.555 9.86891C145.138 10.4944 144.79 11.2589 144.652 12.0929C144.443 12.9269 144.374 13.8304 144.374 14.7339C144.374 15.5679 144.443 16.4019 144.652 17.2359C144.86 18.0699 145.207 18.7649 145.624 19.4599C146.041 20.0854 146.666 20.6414 147.361 21.0584C148.125 21.4754 149.028 21.6839 150.07 21.6839Z" fill="white"/>
<path d="M164.587 16.3325C163.128 16.1935 162.017 15.7765 161.114 14.873C160.28 14.039 159.864 12.927 159.864 11.4675C159.864 10.7725 160.003 10.0775 160.211 9.52149C160.419 8.89599 160.767 8.40949 161.183 7.99249C161.6 7.57549 162.086 7.228 162.712 7.0195C163.337 6.811 164.031 6.672 164.726 6.672H172.575V22.935H170.561V16.4715H166.74L161.183 22.935H158.613L164.587 16.3325ZM170.63 14.8035V8.33999H165.212C164.101 8.33999 163.267 8.61799 162.712 9.24349C162.156 9.86899 161.809 10.6335 161.809 11.537C161.809 12.51 162.086 13.2745 162.712 13.8305C163.267 14.456 164.17 14.734 165.212 14.734H170.63V14.8035Z" fill="white"/>
<path d="M-0.523376 127.393V125.517H6.42279L-0.523376 118.289V115.856L5.8671 122.667L13.7857 115.648V118.08L7.04795 124.196L8.43718 125.656H13.8552V127.532H-0.523376V127.393Z" fill="#FFB32C"/>
<path d="M13.9941 109.879C13.9941 110.713 13.8552 111.408 13.5773 112.034C13.2995 112.659 12.9522 113.146 12.466 113.632C11.9797 114.049 11.424 114.397 10.7294 114.605C10.1043 114.814 9.34017 114.953 8.5761 114.953C7.81202 114.953 7.1174 114.814 6.42278 114.605C5.72817 114.397 5.17247 114.049 4.68624 113.632C4.20001 113.215 3.78324 112.659 3.50539 112.034C3.22755 111.408 3.08862 110.713 3.08862 109.879C3.08862 109.045 3.22755 108.35 3.50539 107.725C3.78324 107.099 4.20001 106.543 4.68624 106.126C5.17247 105.709 5.72817 105.362 6.42278 105.153C7.1174 104.945 7.81202 104.806 8.5761 104.806C9.34017 104.806 10.0348 104.945 10.7294 105.153C11.3546 105.362 11.9797 105.709 12.466 106.126C12.9522 106.543 13.2995 107.099 13.5773 107.725C13.8552 108.35 13.9941 109.045 13.9941 109.879ZM12.5354 109.879C12.5354 109.462 12.466 109.045 12.2576 108.628C12.1186 108.211 11.8408 107.864 11.4935 107.586C11.1462 107.308 10.7294 107.03 10.2432 106.891C9.75694 106.752 9.20125 106.613 8.5761 106.613C7.95094 106.613 7.39525 106.682 6.90902 106.891C6.42278 107.03 6.00601 107.308 5.6587 107.586C5.3114 107.864 5.10301 108.211 4.89463 108.628C4.7557 109.045 4.61678 109.462 4.61678 109.879C4.61678 110.296 4.68624 110.713 4.89463 111.13C5.03355 111.547 5.3114 111.895 5.6587 112.173C6.00601 112.451 6.42278 112.729 6.90902 112.868C7.39525 113.007 7.95094 113.146 8.5761 113.146C9.20125 113.146 9.75694 113.076 10.2432 112.868C10.7294 112.729 11.1462 112.451 11.4935 112.173C11.8408 111.895 12.0492 111.547 12.2576 111.13C12.3965 110.713 12.5354 110.296 12.5354 109.879Z" fill="#FFB32C"/>
<path d="M3.43591 102.86V101.192H7.53415V95.9098H3.43591V94.2418H13.7857V95.9098H8.99285V101.192H13.7857V102.86H3.43591Z" fill="#FFB32C"/>
<path d="M13.0216 85.6932C13.1606 85.8322 13.23 85.9712 13.369 86.1102C13.5079 86.2492 13.5773 86.4577 13.7163 86.6662C13.7857 86.8747 13.8552 87.0832 13.9246 87.2917C13.9941 87.5002 13.9941 87.7087 13.9941 87.9172C13.9941 88.6817 13.8552 89.3767 13.5079 89.8632C13.23 90.4192 12.8133 90.8362 12.2576 91.1142C11.7713 91.4617 11.1462 91.6702 10.4516 91.8092C9.75695 91.9482 9.06233 92.0177 8.36772 92.0177C6.70064 92.0177 5.45033 91.6702 4.47786 90.9057C3.57486 90.2107 3.08863 89.1682 3.08863 87.9867C3.08863 87.7782 3.08863 87.5697 3.15809 87.2917C3.22755 87.0832 3.29701 86.8052 3.43594 86.5967C3.57486 86.3882 3.64432 86.1797 3.78325 86.0407C3.92217 85.8322 4.06109 85.6932 4.20002 85.6237H-0.523376V83.9558H4.26948C4.13055 83.8168 3.99163 83.6777 3.85271 83.5387C3.71378 83.3997 3.57486 83.1913 3.5054 82.9828C3.36648 82.7743 3.29701 82.5658 3.22755 82.2878C3.15809 82.0793 3.15809 81.8013 3.15809 81.5928C3.15809 80.3418 3.64432 79.3688 4.54732 78.6738C5.45033 77.9788 6.7701 77.5618 8.43718 77.5618C9.13179 77.5618 9.82641 77.6313 10.521 77.7703C11.2156 77.9093 11.7713 78.1873 12.327 78.4653C12.8133 78.8128 13.23 79.2298 13.5773 79.7163C13.8552 80.2723 14.0636 80.8978 14.0636 81.6623C14.0636 82.0793 13.9941 82.4268 13.7857 82.9133C13.5773 83.3303 13.369 83.6777 13.0911 83.8862H17.8145V85.5542H13.0216V85.6932ZM12.6049 87.7087C12.6049 87.2222 12.466 86.7357 12.1881 86.3882C11.9103 86.0407 11.6324 85.7627 11.2156 85.6932H6.07548C5.79763 85.7627 5.58925 85.9017 5.38086 86.0407C5.17248 86.1797 5.03356 86.3882 4.96409 86.5967C4.82517 86.8052 4.75571 87.0137 4.75571 87.2222C4.68625 87.4307 4.68625 87.6392 4.68625 87.8477C4.68625 88.2647 4.75571 88.6817 4.96409 88.9597C5.17248 89.3072 5.45033 89.5157 5.79763 89.7242C6.14494 89.9327 6.56171 90.0717 7.04794 90.1412C7.53417 90.2107 8.02041 90.2802 8.5761 90.2802C9.06233 90.2802 9.54856 90.2107 10.0348 90.1412C10.521 90.0717 10.9378 89.9327 11.3546 89.7242C11.7713 89.5157 12.0492 89.2377 12.327 88.9597C12.466 88.6817 12.6049 88.2647 12.6049 87.7087ZM12.6049 82.0098C12.6049 81.5233 12.466 81.0368 12.2576 80.7588C11.9797 80.4113 11.7019 80.1333 11.2851 79.9943C10.8683 79.7858 10.4516 79.6468 9.96533 79.5773C9.4791 79.5078 8.99287 79.4383 8.50664 79.4383C7.95095 79.4383 7.39525 79.5078 6.97848 79.5773C6.49225 79.6468 6.07548 79.8553 5.72817 79.9943C5.38086 80.2028 5.10302 80.4808 4.89463 80.7588C4.68625 81.1063 4.61679 81.4538 4.61679 81.8708C4.61679 82.0793 4.61679 82.2878 4.68625 82.4963C4.75571 82.7048 4.82517 82.9133 4.89463 83.1218C5.03356 83.3303 5.17248 83.4693 5.3114 83.6778C5.45033 83.8863 5.72817 83.9558 6.00602 84.0253H11.2156C11.563 83.9558 11.9103 83.7473 12.1881 83.3303C12.466 82.9828 12.6049 82.5658 12.6049 82.0098Z" fill="#FFB32C"/>
<path d="M13.9941 71.1678C13.9941 72.0018 13.8552 72.6968 13.5773 73.3223C13.2995 73.9478 12.9522 74.4343 12.4659 74.8513C11.9797 75.2683 11.424 75.5463 10.7294 75.7548C10.0348 75.9633 9.34017 76.0328 8.57609 76.0328C7.81201 76.0328 7.1174 75.8938 6.42278 75.6853C5.72816 75.4768 5.17247 75.1293 4.68624 74.6428C4.20001 74.2258 3.8527 73.6698 3.57485 73.1138C3.297 72.4883 3.15808 71.8628 3.15808 71.1678C3.15808 70.2643 3.36647 69.4998 3.71377 68.8743C4.06108 68.2488 4.54731 67.7623 5.17247 67.4148C5.72816 67.0673 6.42278 66.7893 7.1174 66.6503C7.81201 66.5113 8.50663 66.4418 9.13178 66.5113V74.3648C9.61802 74.3648 10.0348 74.2953 10.4516 74.2258C10.8683 74.0868 11.2156 73.8783 11.5629 73.6698C11.9103 73.3918 12.1186 73.0443 12.327 72.6273C12.5354 72.2103 12.6049 71.7238 12.6049 71.1678C12.6049 70.4728 12.4659 69.8473 12.1186 69.3608C11.7713 68.8743 11.2851 68.5963 10.5905 68.4573V66.7893C11.7713 66.9978 12.6743 67.4843 13.23 68.3183C13.7163 69.0133 13.9941 69.9863 13.9941 71.1678ZM7.60363 68.3878C7.18686 68.3878 6.83955 68.5268 6.49224 68.6658C6.14493 68.8048 5.79762 69.0133 5.58924 69.2913C5.31139 69.5693 5.10301 69.8473 4.96408 70.1948C4.82516 70.5423 4.7557 70.9593 4.7557 71.3763C4.7557 71.7933 4.82516 72.2103 4.96408 72.5578C5.10301 72.9053 5.31139 73.1833 5.58924 73.4613C5.86709 73.7393 6.14493 73.9478 6.49224 74.0868C6.83955 74.2258 7.25632 74.2953 7.60363 74.3648V68.3878Z" fill="#FFB32C"/>
<path d="M3.43593 64.7739V63.1059H4.82516V63.0364C4.26947 62.7584 3.8527 62.3414 3.57485 61.7159C3.297 61.0904 3.15808 60.4649 3.15808 59.7004C3.15808 58.8664 3.297 58.1714 3.57485 57.6154C3.8527 56.9899 4.26947 56.5034 4.7557 56.1559C5.24193 55.7389 5.86709 55.4609 6.49224 55.2524C7.1174 55.0439 7.81201 54.9744 8.57609 54.9744C9.34017 54.9744 10.0348 55.0439 10.6599 55.2524C11.2851 55.4609 11.8408 55.7389 12.327 56.1559C12.8133 56.5729 13.23 57.0594 13.5079 57.6154C13.7857 58.2409 13.9246 58.8664 13.9246 59.7004C13.9246 59.9784 13.9246 60.2564 13.8552 60.5344C13.7857 60.8124 13.7163 61.1599 13.5773 61.4379C13.4384 61.7159 13.2995 62.0634 13.0911 62.3414C12.8827 62.6194 12.6049 62.8279 12.327 63.0364V63.1059H17.6756V64.7739H3.43593ZM12.5354 59.8394C12.5354 59.2834 12.3965 58.7969 12.1881 58.3799C11.9797 57.9629 11.6324 57.6849 11.2851 57.4069C10.9378 57.1984 10.4516 56.9899 10.0348 56.9204C9.54855 56.7814 9.06232 56.7814 8.57609 56.7814C8.08986 56.7814 7.60363 56.8509 7.18686 56.9899C6.70063 57.1289 6.28386 57.3374 5.93655 57.5459C5.58924 57.8239 5.31139 58.1714 5.10301 58.5189C4.89462 58.9359 4.7557 59.4224 4.7557 59.9784C4.7557 60.5344 4.89462 61.0209 5.10301 61.4379C5.31139 61.8549 5.6587 62.1329 6.00601 62.4109C6.35332 62.6889 6.77009 62.8279 7.25632 62.9669C7.74255 63.1059 8.22878 63.1059 8.64555 63.1059C9.13178 63.1059 9.61802 63.0364 10.1042 62.8974C10.5905 62.7584 11.0073 62.6194 11.3546 62.3414C11.7019 62.0634 11.9797 61.7159 12.2576 61.2989C12.3965 60.9514 12.5354 60.4649 12.5354 59.8394Z" fill="#FFB32C"/>
<path d="M13.9941 48.5804C13.9941 49.4144 13.8552 50.1094 13.5773 50.7349C13.2995 51.3604 12.9522 51.8469 12.4659 52.2639C11.9797 52.6809 11.424 52.9589 10.7294 53.1674C10.0348 53.3759 9.34017 53.4454 8.57609 53.4454C7.81201 53.4454 7.1174 53.3064 6.42278 53.0979C5.72816 52.8894 5.17247 52.5419 4.68624 52.0554C4.20001 51.6384 3.8527 51.0824 3.57485 50.5264C3.297 50.0399 3.15808 49.3449 3.15808 48.6499C3.15808 47.7464 3.36647 46.9819 3.71377 46.3564C4.06108 45.7309 4.54731 45.2444 5.17247 44.8969C5.72816 44.5494 6.42278 44.2714 7.1174 44.1324C7.81201 43.9934 8.50663 43.9239 9.13178 43.9934V51.7774C9.61802 51.7774 10.0348 51.7079 10.4516 51.6384C10.8683 51.4994 11.2156 51.2909 11.5629 51.0824C11.9103 50.8044 12.1186 50.4569 12.327 50.0399C12.5354 49.6229 12.6049 49.1364 12.6049 48.5804C12.6049 47.8854 12.4659 47.2599 12.1186 46.7734C11.7713 46.2869 11.2851 46.0089 10.5905 45.8699V44.2019C11.7713 44.4104 12.6743 44.8969 13.23 45.7309C13.7163 46.4259 13.9941 47.3989 13.9941 48.5804ZM7.60363 45.7309C7.18686 45.7309 6.83955 45.8699 6.49224 46.0089C6.14493 46.1479 5.79762 46.3564 5.58924 46.6344C5.31139 46.9124 5.10301 47.1904 4.96408 47.5379C4.82516 47.8854 4.7557 48.3024 4.7557 48.7194C4.7557 49.1364 4.82516 49.5534 4.96408 49.9009C5.10301 50.2484 5.31139 50.5264 5.58924 50.8044C5.86709 51.0824 6.14493 51.2909 6.49224 51.4299C6.83955 51.5689 7.25632 51.6384 7.60363 51.7079V45.7309Z" fill="#FFB32C"/>
<path d="M3.43591 42.1864V40.5184H7.53415V35.2364H3.43591V33.5684H13.7857V35.2364H8.99285V40.5184H13.7857V42.1864H3.43591Z" fill="#FFB32C"/>
<path d="M13.7857 22.9349V30.9969H3.43591V29.3289H12.2575V24.4639H3.43591V22.7959H12.2575V21.4059H16.9115V22.9349H13.7857Z" fill="#FFB32C"/>
<path d="M3.43591 19.6685V18.0005H11.9102L3.43591 13.1355V10.981H13.7857V12.649H5.31138L13.7857 17.514V19.6685H3.43591Z" fill="#FFB32C"/>
<path d="M9.75692 6.18552C9.618 6.95002 9.34015 7.50601 8.78446 7.99251C8.22877 8.47901 7.53415 8.68751 6.63115 8.68751C5.65868 8.68751 4.8946 8.40951 4.33891 7.78401C3.78322 7.22801 3.50537 6.39402 3.50537 5.42102V0.139038H13.8552V1.80703H9.89585V4.17002L13.8552 7.36701V9.66051L9.75692 6.18552ZM8.29823 1.87653H4.8946V4.86502C4.8946 5.56002 5.03353 6.11602 5.38084 6.39402C5.65868 6.74152 6.07545 6.88052 6.63115 6.88052C7.18684 6.88052 7.60361 6.74152 7.88146 6.39402C8.1593 6.04652 8.29823 5.56002 8.29823 4.86502V1.87653Z" fill="#FFB32C"/>
<path d="M51.7462 149.216C51.7462 150.398 51.3294 150.954 50.4264 150.954C49.5234 150.954 49.1066 150.398 49.1066 149.216V145.95H47.9258V149.355C47.9258 151.093 48.8288 152.066 50.4264 152.066C52.024 152.066 52.927 151.093 52.927 149.355V145.95H51.7462V149.216Z" fill="white"/>
<path d="M58.484 148.869C58.484 150.328 57.581 150.954 56.6085 150.954C55.4276 150.954 54.8025 149.911 54.8025 148.869C54.8025 147.479 55.7055 146.784 56.6085 146.784C57.7199 146.784 58.484 147.687 58.484 148.869ZM56.8863 145.741C56.0528 145.741 55.3582 146.158 54.872 146.853V145.95H53.6911V154.568H54.872V151.093C55.3582 151.788 56.0528 152.135 56.8169 152.135C57.6504 152.135 58.4145 151.788 58.9007 151.162C59.387 150.606 59.6648 149.772 59.6648 148.938C59.6648 148.104 59.387 147.34 58.9007 146.784C58.4145 146.089 57.6504 145.741 56.8863 145.741Z" fill="white"/>
<path d="M41.8826 146.019C41.5353 145.811 41.2575 145.741 40.9102 145.741C40.2156 145.741 39.5904 146.158 39.3126 146.784V145.88H38.1317V151.857H39.3126V148.938C39.3126 147.965 39.4515 146.923 40.6323 146.923C40.8407 146.923 40.9796 146.923 41.1186 146.992L41.8826 146.019Z" fill="white"/>
<path d="M36.2562 145.88V146.853C35.77 146.158 35.0754 145.741 34.2418 145.741C33.4083 145.741 32.7137 146.089 32.2275 146.714C31.7412 147.27 31.4634 148.035 31.4634 148.869C31.4634 149.703 31.7412 150.537 32.2275 151.093C32.7137 151.718 33.4778 152.066 34.3113 152.066C35.0754 152.066 35.77 151.649 36.2562 151.023V151.927C36.2562 152.969 36.0478 154.012 34.5892 154.012C33.5472 154.012 32.8526 153.386 32.8526 152.413V152.344H31.7412V152.413C31.7412 154.011 32.9221 155.123 34.5892 155.123C37.1592 155.123 37.5065 153.247 37.5065 151.579V145.95H36.2562V145.88ZM34.4502 150.954C33.2694 150.954 32.6442 149.911 32.6442 148.869C32.6442 147.479 33.5472 146.784 34.4502 146.784C35.5616 146.784 36.3257 147.618 36.3257 148.869C36.2562 150.328 35.3532 150.954 34.4502 150.954Z" fill="white"/>
<path d="M70.5009 148.313C69.9452 148.521 69.3895 148.66 68.9727 148.66C68.6254 148.66 68.417 148.591 68.2781 148.382C68.1392 148.174 68.1392 147.896 68.2086 147.479L68.5559 145.95C68.6949 145.185 68.6254 144.629 68.3475 144.282C68.0697 143.934 67.6529 143.795 67.0972 143.795C66.4721 143.795 65.9164 144.004 65.3607 144.49C65.1523 144.073 64.6661 143.795 64.0409 143.795C63.4852 143.795 62.999 144.004 62.5128 144.351C62.3044 144.004 61.7487 143.726 61.1235 143.726C60.8457 143.726 60.4984 143.795 60.2205 143.865H60.1511L59.9427 144.977L60.2205 144.838C60.6373 144.699 60.9846 144.699 61.1235 144.838C61.2625 144.977 61.2625 145.185 61.193 145.463L60.4289 148.73H61.7487L62.3044 146.436C62.5822 145.324 63.0685 144.768 63.7631 144.768C63.9715 144.768 64.1104 144.838 64.1798 144.977C64.3188 145.116 64.3188 145.394 64.2493 145.811L63.5547 148.73H64.8745L65.4996 146.019C65.6385 145.324 66.2637 144.768 66.8889 144.768C67.0972 144.768 67.2362 144.838 67.3056 144.977C67.4445 145.116 67.4445 145.394 67.3751 145.811L67.0278 147.479C66.8889 148.174 66.9583 148.73 67.3056 149.077C67.6529 149.494 68.2086 149.703 68.9032 149.703C69.4589 149.703 70.0841 149.564 70.7092 149.286L70.7787 149.216L71.0565 147.965L70.5009 148.313Z" fill="white"/>
<path d="M47.2312 147.618C47.0923 147.201 46.8839 146.923 46.606 146.645C46.3282 146.367 46.0504 146.158 45.6336 146.019C45.2863 145.88 44.8 145.811 44.3138 145.811C43.8276 145.811 43.4108 145.88 42.994 146.019C42.6467 146.158 42.2994 146.367 42.0216 146.645C41.7437 146.923 41.5354 147.27 41.3964 147.618C41.2575 148.035 41.188 148.452 41.188 148.869C41.188 149.355 41.2575 149.772 41.3964 150.189C41.5354 150.606 41.7437 150.884 42.0216 151.162C42.2994 151.44 42.5773 151.649 42.994 151.788C43.3414 151.927 43.8276 151.996 44.3138 151.996C44.8 151.996 45.2168 151.927 45.6336 151.788C45.9809 151.649 46.3282 151.44 46.606 151.162C46.8839 150.884 47.0923 150.537 47.2312 150.189C47.3701 149.772 47.4396 149.355 47.4396 148.869C47.4396 148.452 47.3701 147.965 47.2312 147.618ZM45.2168 150.884C45.0084 151.023 44.7306 151.093 44.3833 151.093C44.1054 151.093 43.8276 151.023 43.5497 150.884C43.3414 150.745 43.133 150.606 42.994 150.398C42.8551 150.189 42.7162 149.981 42.6467 149.703C42.5773 149.425 42.5773 149.147 42.5773 148.869C42.5773 148.591 42.5773 148.313 42.6467 148.104C42.7162 147.826 42.8551 147.618 42.994 147.409C43.133 147.201 43.3414 147.062 43.5497 146.923C43.7581 146.784 44.036 146.714 44.3833 146.714C44.6611 146.714 44.939 146.784 45.2168 146.923C45.4252 147.062 45.6336 147.201 45.7725 147.409C45.9114 147.618 46.0504 147.826 46.1198 148.104C46.1893 148.382 46.1893 148.66 46.1893 148.869C46.1893 149.147 46.1893 149.425 46.1198 149.703C46.0504 149.981 45.9114 150.189 45.7725 150.398C45.6336 150.606 45.4252 150.815 45.2168 150.884Z" fill="white"/>
<path d="M232.555 155.54C232.486 155.54 232.347 155.471 232.208 155.262L231.86 154.289H229.707L229.36 155.262C229.29 155.471 229.151 155.54 229.012 155.54C228.874 155.54 228.665 155.401 228.665 155.193C228.665 155.123 228.665 155.054 228.735 154.984L230.402 150.814C230.541 150.467 230.68 150.467 230.818 150.467C230.957 150.467 231.096 150.536 231.235 150.814L232.902 154.984C232.972 155.054 232.972 155.123 232.972 155.193C232.902 155.401 232.694 155.54 232.555 155.54ZM231.583 153.594L230.749 151.37L229.915 153.594H231.583ZM236.584 151.023C236.653 150.953 236.653 150.814 236.653 150.814C236.653 150.606 236.514 150.467 236.306 150.467C236.167 150.467 236.028 150.536 235.959 150.745L234.5 154.567L233.041 150.745C232.972 150.536 232.833 150.467 232.694 150.467C232.486 150.467 232.347 150.606 232.347 150.814C232.347 150.884 232.347 150.953 232.416 151.023L234.014 155.123C234.153 155.471 234.361 155.54 234.5 155.54C234.639 155.54 234.847 155.471 234.986 155.123L236.584 151.023ZM239.987 153.177C240.265 153.177 240.335 152.969 240.335 152.899C240.335 152.83 240.265 152.621 239.987 152.621H237.904V151.162H240.126C240.404 151.162 240.474 150.953 240.474 150.884C240.474 150.814 240.404 150.606 240.126 150.606H237.626C237.348 150.606 237.209 150.745 237.209 151.023V155.193C237.209 155.471 237.348 155.61 237.626 155.61H240.196C240.474 155.61 240.543 155.401 240.543 155.332C240.543 155.262 240.474 155.054 240.196 155.054H237.904V153.386H239.987V153.177ZM251.032 155.54C250.962 155.54 250.823 155.471 250.684 155.262L250.337 154.289H248.184L247.837 155.262C247.767 155.471 247.628 155.54 247.489 155.54C247.35 155.54 247.142 155.401 247.142 155.193C247.142 155.123 247.142 155.054 247.211 154.984L248.878 150.814C249.017 150.467 249.156 150.467 249.295 150.467C249.434 150.467 249.573 150.536 249.712 150.814L251.379 154.984C251.449 155.054 251.449 155.123 251.449 155.193C251.379 155.401 251.24 155.54 251.032 155.54ZM250.129 153.594L249.295 151.37L248.462 153.594H250.129ZM246.239 155.54C246.378 155.54 246.586 155.471 246.586 155.123V150.884C246.586 150.467 246.308 150.397 246.169 150.397C246.031 150.397 245.822 150.467 245.683 150.814L244.016 154.567L242.349 150.814C242.21 150.467 242.002 150.397 241.863 150.397C241.724 150.397 241.446 150.467 241.446 150.884V155.123C241.446 155.471 241.654 155.471 241.793 155.471C241.932 155.471 242.141 155.401 242.141 155.123V151.926L243.599 155.193C243.738 155.471 243.877 155.54 244.016 155.54C244.155 155.54 244.294 155.471 244.433 155.193L245.892 151.857V155.123C245.892 155.471 246.1 155.54 246.239 155.54ZM255.755 155.193C255.755 155.123 255.755 154.984 255.616 154.915L253.463 152.83L255.477 151.092C255.616 150.953 255.616 150.884 255.616 150.814C255.616 150.606 255.477 150.536 255.269 150.536C255.2 150.536 255.061 150.606 254.991 150.675L252.699 152.76V150.814C252.699 150.467 252.49 150.397 252.352 150.397C252.213 150.397 252.004 150.467 252.004 150.814V155.123C252.004 155.471 252.213 155.54 252.352 155.54C252.49 155.54 252.699 155.471 252.699 155.123V152.899L255.13 155.401C255.199 155.54 255.338 155.54 255.408 155.54C255.616 155.54 255.755 155.332 255.755 155.193ZM259.228 153.177C259.506 153.177 259.576 152.969 259.576 152.899C259.576 152.83 259.506 152.621 259.228 152.621H257.144V151.162H259.367C259.645 151.162 259.715 150.953 259.715 150.884C259.715 150.814 259.645 150.606 259.367 150.606H256.867C256.589 150.606 256.45 150.745 256.45 151.023V155.193C256.45 155.471 256.589 155.61 256.867 155.61H259.437C259.715 155.61 259.784 155.401 259.784 155.332C259.784 155.262 259.715 155.054 259.437 155.054H257.144V153.386H259.228V153.177ZM262.007 153.247H261.243V155.123C261.243 155.471 261.034 155.54 260.895 155.54C260.756 155.54 260.548 155.471 260.548 155.123V150.884C260.548 150.606 260.687 150.467 260.965 150.467H262.146C263.118 150.467 263.882 150.814 263.882 151.857C263.882 152.552 263.396 153.038 262.701 153.177L263.882 154.915C263.952 154.984 263.952 155.123 263.952 155.123C263.952 155.332 263.813 155.471 263.604 155.471C263.535 155.471 263.396 155.401 263.327 155.262L262.007 153.247ZM261.243 152.621H262.076C262.701 152.621 263.257 152.413 263.257 151.787C263.257 151.162 262.771 151.023 262.146 151.023H261.312V152.621H261.243ZM228.943 150.467C228.735 150.397 228.526 150.467 228.457 150.675L227.068 154.428L226.095 150.675C226.026 150.536 225.887 150.397 225.748 150.397C225.609 150.397 225.47 150.467 225.4 150.675L224.428 154.428L223.039 150.675C222.969 150.467 222.761 150.397 222.552 150.467C222.344 150.536 222.275 150.745 222.344 150.953L223.942 155.193C224.011 155.332 224.081 155.401 224.22 155.471C224.497 155.54 224.775 155.471 224.845 155.193V155.123L225.678 151.857L226.512 155.123V155.193C226.581 155.471 226.929 155.61 227.137 155.471C227.276 155.401 227.345 155.332 227.415 155.193L229.012 150.953C229.221 150.745 229.151 150.536 228.943 150.467Z" fill="white"/>
<path d="M250.059 147.896C249.99 147.896 249.92 147.896 249.851 147.896C249.573 147.896 249.295 147.687 249.226 147.409L248.253 144.351L247.281 147.409C247.211 147.687 246.933 147.409 246.656 147.409C246.378 147.409 246.1 147.687 246.03 147.409L245.058 144.351L244.086 147.409C244.016 147.687 243.738 147.896 243.46 147.896C243.391 147.896 243.321 147.896 243.252 147.896C242.905 147.757 242.696 147.409 242.835 147.062L244.433 142.127C244.502 141.849 244.78 142.127 245.058 142.127C245.336 142.127 245.614 141.849 245.683 142.127L246.656 145.185L247.628 142.127C247.698 141.849 247.975 142.127 248.253 142.127C248.531 142.127 248.809 141.849 248.878 142.127L250.476 147.062C250.615 147.409 250.407 147.757 250.059 147.896ZM243.044 141.71C242.974 141.71 242.905 141.71 242.835 141.71C242.557 141.71 242.28 141.919 242.21 142.197L241.238 145.255L240.265 142.197C240.196 141.919 239.918 142.197 239.64 142.197C239.362 142.197 239.084 141.919 239.015 142.197L238.042 145.255L237.07 142.197C237 141.919 236.723 141.71 236.445 141.71C236.375 141.71 236.306 141.71 236.236 141.71C235.889 141.849 235.681 142.197 235.82 142.544L237.417 147.479C237.487 147.757 237.765 147.479 238.042 147.479C238.32 147.479 238.598 147.757 238.668 147.479L239.64 144.421L240.612 147.479C240.682 147.757 240.96 147.479 241.238 147.479C241.515 147.479 241.793 147.757 241.863 147.479L243.46 142.544C243.599 142.197 243.391 141.78 243.044 141.71Z" fill="white"/>
<path d="M248.253 141.641C248.531 141.641 248.809 141.849 248.878 142.127C248.948 142.266 248.948 142.405 248.878 142.544L248.253 144.421L247.628 142.544C247.559 142.405 247.559 142.266 247.628 142.127C247.698 141.849 247.975 141.641 248.253 141.641ZM244.363 142.127C244.294 142.266 244.294 142.405 244.363 142.544L244.988 144.421L245.614 142.544C245.683 142.405 245.683 142.266 245.614 142.127C245.544 141.849 245.266 141.641 244.988 141.641C244.711 141.641 244.433 141.849 244.363 142.127ZM241.238 147.896C241.515 147.896 241.793 147.687 241.863 147.409C241.932 147.27 241.932 147.131 241.863 146.992L241.238 145.116L240.612 146.992C240.543 147.131 240.543 147.27 240.612 147.409C240.682 147.687 240.96 147.896 241.238 147.896ZM237.973 147.896C238.251 147.896 238.529 147.687 238.598 147.409C238.668 147.27 238.668 147.131 238.598 146.992L237.973 145.116L237.348 146.992C237.278 147.131 237.278 147.27 237.348 147.409C237.487 147.687 237.695 147.896 237.973 147.896Z" fill="white"/>
<path d="M239.64 141.641C239.918 141.641 240.196 141.849 240.265 142.127C240.335 142.266 240.335 142.405 240.265 142.544L239.64 144.421L239.015 142.544C238.945 142.405 238.945 142.266 239.015 142.127C239.084 141.849 239.362 141.641 239.64 141.641ZM246.656 147.896C246.933 147.896 247.211 147.687 247.281 147.409C247.35 147.27 247.35 147.131 247.281 146.992L246.656 145.116L246.03 146.992C245.961 147.131 245.961 147.27 246.03 147.409C246.1 147.687 246.308 147.896 246.656 147.896Z" fill="white"/>
<path d="M167.122 152.274H165.386V148.035L164.274 152.344H163.093L161.982 148.035V152.344H160.593V146.367H163.024L163.857 149.564L164.691 146.367H167.122V152.274Z" fill="white"/>
<path d="M172.123 152.274H167.608V146.297H172.123V147.687H169.414V148.591H171.568V149.911H169.414V150.884H172.123V152.274Z" fill="white"/>
<path d="M172.54 146.297H174.763C175.596 146.297 176.291 146.436 176.986 147.062C177.611 147.687 177.889 148.452 177.889 149.355C177.889 150.12 177.611 150.954 177.055 151.51C176.43 152.135 175.735 152.344 174.902 152.344H172.54V146.297ZM174.624 150.954C174.902 150.954 175.041 150.954 175.249 150.815C175.388 150.745 175.527 150.606 175.666 150.398C175.874 150.05 175.944 149.633 175.944 149.216C175.944 148.799 175.805 148.313 175.596 147.965C175.319 147.618 175.041 147.618 174.624 147.618H174.416V150.884H174.624V150.954Z" fill="white"/>
<path d="M180.042 152.274H178.166V146.297H180.042V152.274Z" fill="white"/>
<path d="M183.793 151.093H182.195L181.848 152.274H180.32L182.195 146.297H184.14L186.016 152.274H184.14L183.793 151.093ZM183.515 149.842L183.029 148.104L182.543 149.842H183.515Z" fill="white"/>
<path d="M190.878 150.12C190.739 151.51 189.767 152.413 188.377 152.413C186.571 152.413 185.599 151.093 185.599 149.425C185.599 147.687 186.432 146.228 188.308 146.228C189.836 146.228 190.739 147.131 190.808 148.66L189.072 148.73C189.072 148.243 188.864 147.618 188.308 147.618C187.474 147.618 187.474 148.869 187.474 149.425C187.474 150.05 187.544 151.023 188.308 151.023C188.864 151.023 189.072 150.537 189.141 150.05L190.878 150.12Z" fill="white"/>
<path d="M196.852 149.355C196.852 151.093 195.81 152.413 194.004 152.413C192.198 152.413 191.156 151.023 191.156 149.355C191.156 147.548 192.198 146.228 194.004 146.228C195.81 146.228 196.852 147.548 196.852 149.355ZM193.101 149.355C193.101 149.911 193.17 151.023 194.004 151.023C194.837 151.023 194.907 149.911 194.907 149.355C194.907 148.799 194.837 147.618 194.004 147.618C193.17 147.548 193.101 148.73 193.101 149.355Z" fill="white"/>
<path d="M203.659 152.274H201.922V148.035L200.811 152.344H199.63L198.519 148.035V152.344H197.129V146.367H199.561L200.394 149.564L201.228 146.367H203.659V152.274Z" fill="white"/>
<g opacity="0.5">
<path opacity="0.5" d="M132.252 156.722L130.655 150.606L133.78 156.096L133.711 156.166C133.294 156.444 132.808 156.583 132.322 156.722H132.252ZM131.141 151.787L132.391 156.513C132.808 156.374 133.225 156.235 133.572 156.027L131.141 151.787Z" fill="white"/>
<path opacity="0.5" d="M129.474 156.722H129.404C128.918 156.583 128.501 156.374 128.015 156.166L127.946 156.096L130.794 151.162H130.932V151.301L129.474 156.722ZM128.223 156.027C128.571 156.235 128.988 156.374 129.404 156.513L130.655 151.787L128.223 156.027Z" fill="white"/>
<path opacity="0.5" d="M130.863 156.861H130.794V150.536L132.391 156.653H132.322C131.835 156.861 131.349 156.861 130.863 156.861ZM130.932 151.857V156.722C131.349 156.722 131.766 156.653 132.183 156.583L130.932 151.857Z" fill="white"/>
<path opacity="0.5" d="M130.863 156.861C130.377 156.861 129.891 156.792 129.404 156.653H129.335L130.932 150.536V156.861H130.863ZM129.543 156.583C129.96 156.653 130.377 156.722 130.794 156.722V151.857L129.543 156.583Z" fill="white"/>
<path opacity="0.5" d="M133.641 156.166L130.794 151.232L130.863 151.093L134.961 155.193L134.892 155.263C134.544 155.61 134.128 155.888 133.711 156.166H133.641ZM131.28 151.718L133.711 155.958C134.058 155.749 134.406 155.471 134.683 155.193L131.28 151.718Z" fill="white"/>
<path opacity="0.5" d="M126.904 155.262C126.487 154.845 126.209 154.428 125.931 154.011L125.862 153.942L130.724 151.093L130.794 151.023L130.863 151.232H130.794L126.904 155.262ZM126.14 154.011C126.348 154.359 126.626 154.706 126.904 155.054L130.307 151.649L126.14 154.011Z" fill="white"/>
<path opacity="0.5" d="M130.863 151.301L125.862 148.451L125.931 148.382C126.209 147.965 126.487 147.548 126.834 147.2L126.904 147.131L130.932 151.162L130.863 151.301ZM126.14 148.382L130.377 150.814L126.904 147.409C126.626 147.687 126.348 148.034 126.14 148.382Z" fill="white"/>
<path opacity="0.5" d="M131.28 151.718L130.863 151.301L130.932 151.232L130.863 151.301L126.834 147.27L126.904 147.201C127.251 146.853 127.668 146.575 128.085 146.297L128.154 146.228L131.28 151.718ZM127.043 147.27L130.446 150.676L128.015 146.436C127.668 146.714 127.32 146.992 127.043 147.27Z" fill="white"/>
<path opacity="0.5" d="M131.141 151.787L128.015 146.297L128.085 146.227C128.501 145.949 128.988 145.811 129.474 145.672H129.543L131.141 151.787ZM128.223 146.436L130.655 150.675L129.404 145.95C128.988 146.019 128.571 146.228 128.223 146.436Z" fill="white"/>
<path opacity="0.5" d="M131.21 151.301H130.863L125.376 149.841V149.772C125.514 149.285 125.723 148.869 125.931 148.382L126.001 148.312L131.21 151.301ZM125.584 149.702L130.307 150.953L126.07 148.521C125.862 148.938 125.723 149.285 125.584 149.702Z" fill="white"/>
<path opacity="0.5" d="M130.863 151.301H125.167V151.231C125.167 150.745 125.237 150.259 125.376 149.772V149.703L131.002 151.231L130.863 151.301ZM125.376 151.162H130.238L125.514 149.911C125.445 150.259 125.376 150.745 125.376 151.162Z" fill="white"/>
<path opacity="0.5" d="M128.085 156.166L128.015 156.097C127.598 155.819 127.182 155.541 126.834 155.193L126.765 155.124L130.794 151.093H131.071L130.932 151.232L128.085 156.166ZM127.043 155.193C127.32 155.471 127.668 155.749 128.015 155.958L130.446 151.718L127.043 155.193Z" fill="white"/>
<path opacity="0.5" d="M126.001 154.15L125.931 154.081C125.653 153.664 125.514 153.177 125.376 152.691V152.621L130.863 151.162H131.21L130.932 151.301L126.001 154.15ZM125.584 152.76C125.723 153.177 125.862 153.594 126.07 153.942L130.307 151.509L125.584 152.76Z" fill="white"/>
<path opacity="0.5" d="M125.445 152.76V152.691C125.306 152.204 125.237 151.718 125.237 151.231V151.162H131.558L125.445 152.76ZM125.376 151.301C125.376 151.718 125.445 152.135 125.514 152.552L130.238 151.301H125.376Z" fill="white"/>
<path opacity="0.5" d="M130.655 151.787L132.252 145.672H132.322C132.808 145.811 133.225 146.019 133.711 146.227L133.78 146.297L130.655 151.787ZM132.391 145.95L131.141 150.675L133.572 146.436C133.155 146.228 132.808 146.019 132.391 145.95Z" fill="white"/>
<path opacity="0.5" d="M130.446 151.718L133.572 146.228L133.641 146.297C134.058 146.575 134.475 146.853 134.822 147.201L134.892 147.27L130.446 151.718ZM133.711 146.506L131.28 150.745L134.683 147.34C134.406 146.992 134.058 146.714 133.711 146.506Z" fill="white"/>
<path opacity="0.5" d="M134.822 155.262L130.863 151.301L131.002 151.162C131.349 151.509 131.697 151.787 132.113 151.996C132.53 152.204 132.947 152.413 133.433 152.552L135.864 153.942L135.795 154.011C135.517 154.498 135.239 154.915 134.822 155.262ZM131.905 152.135L134.822 155.054C135.1 154.776 135.378 154.428 135.586 154.081L133.364 152.76C132.877 152.621 132.461 152.413 131.974 152.204C131.974 152.135 131.905 152.135 131.905 152.135Z" fill="white"/>
<path opacity="0.5" d="M135.725 154.151L132.738 152.413L133.364 152.552C133.85 152.691 134.267 152.761 134.753 152.761C135.239 152.761 135.725 152.691 136.142 152.552L136.281 152.483L136.212 152.622C136.073 153.108 135.864 153.525 135.656 154.012L135.725 154.151ZM133.85 152.83L135.656 153.873C135.864 153.525 136.003 153.178 136.142 152.761C135.725 152.83 135.239 152.9 134.822 152.9C134.475 152.969 134.197 152.9 133.85 152.83Z" fill="white"/>
<path opacity="0.5" d="M130.794 151.857V145.533H130.863C131.349 145.533 131.835 145.602 132.322 145.741H132.391L130.794 151.857ZM130.932 145.741V150.606L132.183 145.88C131.766 145.811 131.349 145.741 130.932 145.741Z" fill="white"/>
<path opacity="0.5" d="M130.932 151.857L129.335 145.741H129.404C129.891 145.602 130.377 145.533 130.863 145.533H130.932V151.857ZM129.543 145.88L130.794 150.606V145.741C130.377 145.741 129.96 145.811 129.543 145.88Z" fill="white"/>
<path opacity="0.5" d="M134.822 152.969H134.753V146.645L136.35 152.76H136.281C135.795 152.899 135.309 152.969 134.822 152.969ZM134.892 147.896V152.76C135.309 152.76 135.725 152.691 136.142 152.621L134.892 147.896Z" fill="white"/>
<path opacity="0.5" d="M136.212 152.76L134.614 146.645L137.74 152.135L137.67 152.204C137.253 152.482 136.767 152.621 136.281 152.76H136.212ZM135.031 147.896L136.281 152.622C136.698 152.483 137.115 152.343 137.462 152.135L135.031 147.896Z" fill="white"/>
<path opacity="0.5" d="M134.892 152.969H134.822C134.336 152.969 133.85 152.899 133.364 152.76H133.294L134.822 147.131L134.961 147.27V147.339V152.969H134.892ZM133.503 152.621C133.919 152.691 134.336 152.76 134.753 152.76V147.895L133.503 152.621Z" fill="white"/>
<path opacity="0.5" d="M133.433 152.76H133.364C132.877 152.621 132.461 152.413 131.974 152.204L131.905 152.135L135.031 146.645L133.433 152.76ZM132.113 152.066C132.461 152.274 132.877 152.413 133.294 152.552L134.544 147.826L132.113 152.066Z" fill="white"/>
<path opacity="0.5" d="M132.044 152.205L131.974 152.135C131.558 151.857 131.141 151.579 130.794 151.232L130.724 151.162L135.17 146.714L132.044 152.205ZM131.002 151.232C131.28 151.51 131.627 151.788 132.044 151.996L134.475 147.757L131.002 151.232Z" fill="white"/>
<path opacity="0.5" d="M140.24 148.799L134.753 147.339H134.683V147.131H134.753H140.379V147.2C140.379 147.687 140.31 148.173 140.171 148.66L140.24 148.799ZM135.447 147.339L140.171 148.59C140.24 148.173 140.31 147.756 140.31 147.339H135.447Z" fill="white"/>
<path opacity="0.5" d="M134.822 147.409L134.683 147.34L136.142 141.78H136.212C136.698 141.919 137.115 142.127 137.601 142.336L137.67 142.405L134.822 147.409ZM136.35 141.988L135.1 146.714L137.531 142.475C137.115 142.266 136.698 142.127 136.35 141.988Z" fill="white"/>
<path opacity="0.5" d="M134.753 147.548V141.571H134.822C135.309 141.571 135.795 141.641 136.281 141.78H136.35L134.892 147.27L134.753 147.548ZM134.892 141.78V146.645L136.142 141.919C135.725 141.849 135.309 141.78 134.892 141.78Z" fill="white"/>
<path opacity="0.5" d="M134.892 147.896L133.294 141.78H133.364C133.85 141.641 134.336 141.571 134.822 141.571H134.892V147.896ZM133.503 141.919L134.753 146.645V141.78C134.336 141.78 133.85 141.849 133.503 141.919Z" fill="white"/>
<path opacity="0.5" d="M134.544 147.618L137.601 142.336L137.67 142.405C138.087 142.683 138.504 142.961 138.851 143.309L138.921 143.378L134.892 147.409L134.544 147.618ZM137.67 142.544L135.239 146.784L138.643 143.378C138.365 143.031 138.018 142.753 137.67 142.544Z" fill="white"/>
<path opacity="0.5" d="M134.822 147.34H134.614L138.782 143.17L138.851 143.239C139.198 143.587 139.476 144.004 139.754 144.421L139.824 144.49L134.822 147.34ZM138.782 143.448L135.309 146.923L139.546 144.49C139.337 144.073 139.06 143.726 138.782 143.448Z" fill="white"/>
<path opacity="0.5" d="M139.685 150.189L134.753 147.339H134.683V147.131L134.822 147.2L140.31 148.66V148.729C140.171 149.216 139.962 149.633 139.754 150.119L139.685 150.189ZM135.378 147.548L139.615 149.98C139.824 149.633 139.962 149.216 140.101 148.799L135.378 147.548Z" fill="white"/>
<path opacity="0.5" d="M134.544 147.34L134.753 147.201L140.24 145.741V145.811C140.379 146.297 140.449 146.784 140.449 147.27V147.34H134.544ZM140.171 145.95L135.447 147.201H140.31C140.31 146.784 140.24 146.367 140.171 145.95Z" fill="white"/>
<path opacity="0.5" d="M134.197 147.548L139.685 144.421L139.754 144.49C140.032 144.907 140.171 145.394 140.31 145.88V145.95L134.197 147.548ZM139.615 144.56L135.378 146.992L140.101 145.741C139.962 145.324 139.824 144.977 139.615 144.56Z" fill="white"/>
<path opacity="0.5" d="M135.239 147.757L130.794 143.308L130.863 143.239C131.21 142.891 131.627 142.613 132.044 142.335L132.113 142.266L135.239 147.757ZM131.002 143.308L134.406 146.714L131.974 142.474C131.627 142.752 131.28 143.03 131.002 143.308Z" fill="white"/>
<path opacity="0.5" d="M135.031 147.896L131.905 142.405L131.974 142.336C132.391 142.058 132.877 141.919 133.364 141.78H133.433V141.849L135.031 147.896ZM132.113 142.475L134.544 146.714L133.294 141.988C132.877 142.127 132.53 142.266 132.113 142.475Z" fill="white"/>
<path opacity="0.5" d="M134.753 147.339C134.406 146.992 134.058 146.714 133.641 146.505C133.225 146.297 132.808 146.088 132.322 145.949L129.891 144.56L129.96 144.49C130.238 144.073 130.516 143.656 130.863 143.309L130.932 143.239L134.961 147.27L134.753 147.339ZM132.322 145.741C132.808 145.88 133.225 146.088 133.711 146.297C133.711 146.297 133.78 146.297 133.78 146.367L130.863 143.448C130.585 143.726 130.307 144.073 130.099 144.421L132.322 145.741Z" fill="white"/>
<path opacity="0.5" d="M132.877 146.089L132.252 145.95C131.766 145.811 131.28 145.741 130.863 145.741C130.377 145.741 129.891 145.811 129.474 145.95L129.335 146.019L129.404 145.88C129.543 145.394 129.752 144.977 129.96 144.49L130.029 144.421L132.877 146.089ZM130.029 144.56C129.821 144.907 129.682 145.255 129.543 145.672C129.96 145.602 130.446 145.533 130.863 145.533C131.21 145.533 131.488 145.533 131.766 145.602L130.029 144.56Z" fill="white"/>
<path opacity="0.5" d="M138.782 151.371L134.753 147.34L134.822 147.201L139.824 150.05L139.754 150.12C139.476 150.537 139.198 150.954 138.782 151.371ZM135.309 147.687L138.782 151.162C139.059 150.884 139.337 150.537 139.546 150.12L135.309 147.687Z" fill="white"/>
<path opacity="0.5" d="M137.601 152.205L134.475 146.714L138.921 151.162L138.851 151.232C138.504 151.579 138.087 151.857 137.67 152.135L137.601 152.205ZM135.239 147.757L137.67 151.996C138.018 151.788 138.365 151.51 138.643 151.232L135.239 147.757Z" fill="white"/>
</g>
<path d="M92.1728 151.232H91.4088V148.66L90.0195 150.328C89.9501 150.398 89.8806 150.398 89.8111 150.328L88.4219 148.66V151.232H87.6578V147.687C87.6578 147.479 87.8662 147.27 88.0746 147.27C88.2135 147.27 88.3525 147.34 88.4219 147.479L89.8806 149.286L91.4088 147.409C91.4782 147.34 91.6171 147.27 91.6866 147.27C91.895 147.27 92.1034 147.479 92.1034 147.687V151.232H92.1728Z" fill="white"/>
<path d="M111.969 151.232H112.872L113.359 150.189H115.095L115.651 151.232H116.554L114.609 147.479C114.54 147.34 114.401 147.27 114.262 147.27C114.123 147.27 113.984 147.34 113.914 147.479L111.969 151.232ZM114.192 148.382L114.748 149.494H113.637L114.192 148.382Z" fill="white"/>
<path d="M98.4939 151.232H97.9382L95.2986 148.591V151.232H94.5346V147.687C94.5346 147.479 94.743 147.27 94.9513 147.27C95.0903 147.27 95.1597 147.34 95.2986 147.409L97.7298 149.842V147.479C97.7298 147.34 97.8687 147.201 98.0076 147.201H98.2855C98.4244 147.201 98.5633 147.34 98.5633 147.479V151.232H98.4939Z" fill="white"/>
<path d="M101.759 147.34C101.481 147.27 101.203 147.27 100.786 147.27H99.6747C99.4663 147.27 99.2579 147.479 99.2579 147.687V151.232H100.578C100.994 151.232 101.342 151.162 101.689 151.093C102.731 150.815 103.287 150.12 103.287 149.216C103.287 148.243 102.731 147.618 101.759 147.34ZM101.55 150.398C101.272 150.467 100.994 150.467 100.647 150.467H100.161V148.035H100.786C101.133 148.035 101.411 148.035 101.62 148.104C102.245 148.243 102.523 148.591 102.523 149.216C102.453 149.772 102.175 150.189 101.55 150.398Z" fill="white"/>
<path d="M119.332 149.633C119.958 149.425 120.235 149.077 120.235 148.452C120.235 147.687 119.61 147.201 118.638 147.201H117.318C117.11 147.201 116.901 147.409 116.901 147.618V151.162H117.665V149.703H118.36L119.332 151.162H120.305L119.332 149.633ZM117.735 149.008V148.035H118.707C118.985 148.035 119.402 148.104 119.402 148.521C119.402 148.73 119.332 149.008 118.568 149.008H117.735Z" fill="white"/>
<path d="M92.9369 151.232H93.701V147.548C93.701 147.409 93.5621 147.27 93.4232 147.27H93.1453C93.0064 147.27 92.8675 147.409 92.8675 147.548V151.232H92.9369Z" fill="white"/>
<path d="M111.483 151.232H110.65V149.564H108.566V151.232H107.802V147.548C107.802 147.409 107.941 147.27 108.08 147.27H108.357C108.496 147.27 108.635 147.409 108.635 147.548V148.869H110.719V147.548C110.719 147.409 110.858 147.27 110.997 147.27H111.275C111.414 147.27 111.553 147.409 111.553 147.548V151.232H111.483Z" fill="white"/>
<path d="M105.579 148.869C105.023 148.799 104.676 148.73 104.676 148.382C104.676 148.104 104.954 147.965 105.44 147.965C105.996 147.965 106.413 148.174 106.621 148.243C106.69 148.243 106.69 148.243 106.69 148.174L106.899 147.687C106.899 147.687 106.899 147.687 106.899 147.618C106.899 147.548 106.899 147.548 106.829 147.548C106.413 147.34 105.857 147.201 105.371 147.201C104.398 147.201 103.842 147.618 103.842 148.382C103.842 148.73 103.981 149.008 104.19 149.216C104.468 149.425 104.954 149.494 105.371 149.564C105.926 149.633 106.274 149.703 106.274 149.981C106.274 150.467 105.648 150.467 105.371 150.467C104.954 150.467 104.537 150.328 104.19 150.12L104.12 150.05L104.051 150.12L103.773 150.606L103.703 150.815L103.773 150.884C104.051 151.093 104.537 151.301 105.301 151.301C106.343 151.301 107.038 150.815 107.038 150.05C107.107 149.077 106.274 148.938 105.579 148.869Z" fill="white"/>
<path d="M123.639 149.425C123.639 149.494 123.57 149.564 123.5 149.564H121.764V150.467H123.847V151.232H120.93V147.687C120.93 147.479 121.138 147.27 121.347 147.27H123.639C123.708 147.27 123.778 147.34 123.778 147.409V147.826C123.778 147.896 123.708 147.965 123.639 147.965H121.764V148.799H123.5C123.57 148.799 123.639 148.869 123.639 148.938V149.425Z" fill="white"/>
<path d="M130.863 157C127.668 157 125.028 154.428 125.028 151.162C125.028 147.965 127.598 145.324 130.863 145.324C132.391 145.324 133.85 145.95 134.961 146.992L134.614 147.34C133.641 146.367 132.252 145.811 130.863 145.811C127.946 145.811 125.584 148.174 125.584 151.093C125.584 154.011 127.946 156.374 130.863 156.374C133.294 156.374 135.447 154.706 136.003 152.344L136.489 152.483C135.864 155.193 133.572 157 130.863 157Z" fill="white"/>
<path d="M130.863 151.718C130.585 151.718 130.377 151.509 130.377 151.231C130.377 150.954 130.585 150.745 130.863 150.745C131.141 150.745 131.349 150.954 131.349 151.231C131.349 151.509 131.141 151.718 130.863 151.718ZM130.863 151.162C130.863 151.162 130.863 151.231 130.863 151.162C130.863 151.231 130.863 151.231 130.863 151.162C130.863 151.231 130.863 151.231 130.863 151.162C130.863 151.231 130.863 151.162 130.863 151.162Z" fill="white"/>
<path d="M134.822 153.039C133.294 153.039 131.835 152.483 130.794 151.371L131.141 151.023C132.113 151.996 133.433 152.552 134.822 152.552C135.309 152.552 135.795 152.483 136.212 152.344C138.504 151.718 140.101 149.633 140.101 147.201C140.101 144.282 137.74 141.919 134.822 141.919C132.391 141.919 130.238 143.587 129.682 145.95L129.196 145.811C129.821 143.17 132.183 141.363 134.822 141.363C138.018 141.363 140.657 143.934 140.657 147.201C140.657 149.842 138.921 152.135 136.35 152.83C135.864 152.969 135.309 153.039 134.822 153.039Z" fill="white"/>
<path d="M134.822 147.687C134.544 147.687 134.406 147.479 134.406 147.27C134.406 146.992 134.614 146.853 134.822 146.853C135.1 146.853 135.239 147.062 135.239 147.27C135.239 147.479 135.031 147.687 134.822 147.687ZM134.822 147.201C134.753 147.201 134.753 147.201 134.822 147.201C134.753 147.27 134.822 147.34 134.822 147.34C134.822 147.27 134.892 147.27 134.822 147.201C134.892 147.201 134.822 147.201 134.822 147.201Z" fill="white"/>
<path d="M134.663 147.081L130.699 151.076L131.044 151.419L135.009 147.424L134.663 147.081Z" fill="white"/>
</g>
<defs>
<clipPath id="clip0_4_2500">
<rect width="280" height="157" fill="white"/>
</clipPath>
</defs>
</svg>
