<svg width="244" height="211" viewBox="0 0 244 211" fill="none" xmlns="http://www.w3.org/2000/svg">
<g clip-path="url(#clip0_4_3672)">
<path d="M118.264 175.606V64.5859H2.38437V175.606H118.264ZM120.649 177.875H0V62.3169H120.649V177.875Z" fill="#0080FF"/>
<path d="M61.1191 92.3409L62.7879 90.7528L96.9639 123.273L95.2952 124.861L61.1191 92.3409Z" fill="#0080FF"/>
<path d="M53.8072 62.5437L56.43 62.9219L58.099 63.3754L119.934 122.289L118.264 123.877L53.8072 62.5437Z" fill="#0080FF"/>
<path d="M56.1915 76.7619L107.455 125.541L108.965 125.617L111.112 125.844L55.3173 72.6775L56.1915 74.4929V76.7619Z" fill="#0080FF"/>
<path d="M66.4442 63.9049L68.1928 62.3169L120.648 112.306L118.98 113.894L66.4442 63.9049Z" fill="#0080FF"/>
<path d="M78.7634 63.9049L80.4327 62.3169L119.934 99.9789L118.264 101.568L78.7634 63.9049Z" fill="#0080FF"/>
<path d="M102.687 64.5859L104.435 62.9973L119.934 77.8204L118.264 79.4085L102.687 64.5859Z" fill="#0080FF"/>
<path d="M90.6851 63.9049L92.3543 62.3169L119.934 88.6352L118.264 90.2233L90.6851 63.9049Z" fill="#0080FF"/>
<path d="M121.046 125.541C156.732 125.541 185.822 97.8619 185.822 63.9049C185.822 29.9484 156.732 2.26882 121.046 2.26882C85.3601 2.26882 56.271 29.9484 56.271 63.9049C56.271 97.8619 85.2808 125.541 121.046 125.541ZM121.046 127.81C83.9299 127.81 53.8867 99.2232 53.8867 63.9049C53.8867 28.5871 83.9299 0 121.046 0C158.163 0 188.206 28.5871 188.206 63.9049C188.206 99.2232 158.084 127.81 121.046 127.81Z" fill="white"/>
<path d="M176.761 125.617C212.526 125.617 241.615 97.9373 241.615 63.9049C241.615 29.8727 212.526 2.19319 176.761 2.19319H121.046C85.2808 2.19319 56.1916 29.8727 56.1916 63.9049C56.1916 97.9373 85.2808 125.617 121.046 125.617H176.761ZM176.761 127.886H121.046C83.9299 127.886 53.8072 99.2232 53.8072 63.9049C53.8867 28.6627 83.9299 0 121.046 0H176.761C213.877 0 244 28.6627 244 63.9809C244 99.2986 213.877 127.886 176.761 127.886Z" fill="#FFB32C"/>
<path fill-rule="evenodd" clip-rule="evenodd" d="M149.976 127.28L184.709 161.011V126.6L149.976 127.28Z" fill="#FFB32C"/>
<path fill-rule="evenodd" clip-rule="evenodd" d="M49.0384 177.27L14.3062 211V176.589L49.0384 177.27Z" fill="#0080FF"/>
<path fill-rule="evenodd" clip-rule="evenodd" d="M93.7058 111.021C98.9515 111.021 103.243 115.105 103.243 120.096C103.243 125.087 98.9515 129.171 93.7058 129.171C88.4602 129.171 84.1683 125.087 84.1683 120.096C84.1683 115.105 88.4602 111.021 93.7058 111.021Z" fill="#0080FF"/>
<path d="M93.7058 126.903C97.6799 126.903 100.859 123.877 100.859 120.096C100.859 116.315 97.6799 113.289 93.7058 113.289C89.7318 113.289 86.5524 116.315 86.5524 120.096C86.5524 123.877 89.7318 126.903 93.7058 126.903ZM93.7058 129.171C88.4602 129.171 84.1683 125.087 84.1683 120.096C84.1683 115.105 88.4602 111.021 93.7058 111.021C98.9515 111.021 103.243 115.105 103.243 120.096C103.243 125.163 98.9515 129.171 93.7058 129.171Z" fill="white"/>
<path fill-rule="evenodd" clip-rule="evenodd" d="M61.3575 112.987C65.4903 112.987 68.8283 116.163 68.8283 120.096C68.8283 124.029 65.4903 127.205 61.3575 127.205C57.2246 127.205 53.8865 124.029 53.8865 120.096C53.807 116.163 57.2246 112.987 61.3575 112.987Z" fill="white"/>
<path fill-rule="evenodd" clip-rule="evenodd" d="M29.6456 112.987C33.7784 112.987 37.1166 116.163 37.1166 120.096C37.1166 124.029 33.7784 127.205 29.6456 127.205C25.5127 127.205 22.1746 124.029 22.1746 120.096C22.1746 116.163 25.5127 112.987 29.6456 112.987Z" fill="white"/>
<path fill-rule="evenodd" clip-rule="evenodd" d="M119.934 54.5273C125.259 54.5273 129.471 58.6113 129.471 63.6028C129.471 68.5937 125.179 72.6775 119.934 72.6775C114.688 72.6775 110.396 68.5937 110.396 63.6028C110.396 58.6113 114.688 54.5273 119.934 54.5273Z" fill="#FFB32C"/>
<path d="M119.934 70.4845C123.908 70.4845 127.087 67.4592 127.087 63.6782C127.087 59.8966 123.908 56.8717 119.934 56.8717C115.96 56.8717 112.781 59.8966 112.781 63.6782C112.781 67.3838 115.96 70.4845 119.934 70.4845ZM119.934 72.7535C114.609 72.7535 110.396 68.6697 110.396 63.6782C110.396 58.6867 114.688 54.6029 119.934 54.6029C125.179 54.6029 129.471 58.6867 129.471 63.6782C129.471 68.6697 125.259 72.7535 119.934 72.7535Z" fill="white"/>
<path fill-rule="evenodd" clip-rule="evenodd" d="M153.95 56.4935C158.084 56.4935 161.422 59.6698 161.422 63.6028C161.422 67.5352 158.084 70.7113 153.95 70.7113C149.818 70.7113 146.479 67.5352 146.479 63.6028C146.4 59.6698 149.738 56.4935 153.95 56.4935Z" fill="white"/>
<path fill-rule="evenodd" clip-rule="evenodd" d="M186.596 56.4935C190.729 56.4935 194.067 59.6698 194.067 63.6028C194.067 67.5352 190.729 70.7113 186.596 70.7113C182.463 70.7113 179.125 67.5352 179.125 63.6028C179.125 59.6698 182.463 56.4935 186.596 56.4935Z" fill="white"/>
</g>
<defs>
<clipPath id="clip0_4_3672">
<rect width="244" height="211" fill="white"/>
</clipPath>
</defs>
</svg>
